# xmcd CD database file
#
# Track frame offsets:
#	151
#	15629
#	29169
#	44268
#	60807
#	74126
#	94582
#	105320
#	122982
#	135789
#	155941
#	175450
#	183941
#	198918
#	216983
#	238197
#
# Disc length: 3366 seconds
#
# Revision: 0
# Processed by: cddbd v1.5PL3 Copyright (c) Steve Scherf et al.
# Submitted via: CDex 1.51
#
DISCID=e40d2410
DTITLE=異想世界 - 吉他演奏譜CD
DYEAR=1999
DGENRE=New Age
TTITLE0=鄰家的龍貓
TTITLE1=The Pink Panther
TTITLE2=火之鳥
TTITLE3=風之丘
TTITLE4=Under the Sea
TTITLE5=迷路的小孩
TTITLE6=飛行宅急便
TTITLE7=予感
TTITLE8=小叮噹
TTITLE9=天空之城
TTITLE10=Somewhere Out There
TTITLE11=手舞足稻
TTITLE12=小相片
TTITLE13=瑪利兄弟
TTITLE14=Colors of the Wind
TTITLE15=林蔭大道
EXTD=YEAR: 1999
EXTT0=
EXTT1=
EXTT2=
EXTT3=
EXTT4=
EXTT5=
EXTT6=
EXTT7=
EXTT8=
EXTT9=
EXTT10=
EXTT11=
EXTT12=
EXTT13=
EXTT14=
EXTT15=
PLAYORDER=
